<?xml version="1.0" encoding="utf-8"?>
<!-- Generator: Adobe Illustrator 26.0.1, SVG Export Plug-In . SVG Version: 6.00 Build 0)  -->
<svg version="1.1" id="Layer_1" xmlns="http://www.w3.org/2000/svg" xmlns:xlink="http://www.w3.org/1999/xlink" x="0px" y="0px"
	 viewBox="0 0 1080 1080" style="enable-background:new 0 0 1080 1080;" xml:space="preserve">
<g>
	<path d="M963.32,316.38c-6.28,8.48-11.63,17.87-18.98,25.29c-55.36,55.88-111.06,111.43-166.85,166.9
		c-5.02,4.99-7.43,9.88-7.31,17.15c0.42,24.47,0.52,48.97-0.08,73.43c-0.54,22.15-8.24,41.96-22.89,58.72
		c-15.56,17.8-35.32,26.24-59.04,26.19c-73.99-0.16-147.98,0.28-221.96-0.28c-20.33-0.15-35.84,6.92-49.07,22.07
		c-32.02,36.66-64.52,72.91-97.15,109.03c-4.65,5.15-10.45,10.35-16.77,12.68c-21.4,7.88-43.01-13.19-38.78-37.61
		c5.15-29.77,10.94-59.44,16.44-89.15c0.35-1.89,0.73-3.78,0.97-5.69c1.16-9.48-0.27-11.1-9.93-11.11
		c-22.83-0.03-45.68-0.69-68.48,0.13c-49.96,1.8-77.8-37.28-83.47-72.33c-1.01-6.21-1.56-12.57-1.56-18.86
		c-0.1-82.52-0.06-165.03-0.07-247.55c0-20.32,4.99-39.26,16.64-56c15.42-22.16,36.24-34.57,63.93-34.44
		c41.81,0.2,83.62,0.05,125.42,0.05c119.92,0,239.86,1.14,359.76-0.52c54.21-0.75,84.53,43.75,86.08,84.3
		c0.43,11.15,0.06,22.34,0.06,35.55c3.61-3.37,5.77-5.27,7.8-7.3c33.47-33.44,66.92-66.89,100.37-100.34
		c19.25-19.25,38.06-19.34,57.18-0.28c3.51,3.5,7.45,6.66,10.41,10.57c6.05,7.96,11.58,16.33,17.32,24.53
		C963.32,306.47,963.32,311.42,963.32,316.38z M292.05,802.5c1.01,0.13,2.01,0.25,3.02,0.38c2.04-2.14,4.14-4.23,6.11-6.44
		c32.58-36.54,65.26-72.99,97.68-109.67c17.65-19.98,39.17-29.57,66.12-29.36c73.16,0.56,146.33,0.19,219.49,0.19
		c30.76,0,52.68-16.47,57.23-46.89c3.25-21.73,2.19-44.1,3.06-66.19c-0.8-0.27-1.6-0.53-2.4-0.8
		c-10.58,10.64-20.95,21.5-31.85,31.79c-3.63,3.43-8.33,6.59-13.07,7.84c-20.17,5.33-40.53,9.95-60.85,14.71
		c-15.04,3.52-22.39-3.89-18.87-18.91c4.7-20.05,9.13-40.18,14.36-60.09c1.31-5,4.39-10.13,8.04-13.83
		c32.84-33.28,66.03-66.22,98.96-99.42c2.28-2.3,4.61-5.85,4.67-8.85c0.36-19.52,0.77-39.08-0.1-58.57
		c-1.57-35.2-25-56.96-60.19-56.96c-22.28,0-44.56,0-66.84,0c-138.35,0-276.7,0.17-415.06-0.15c-24.66-0.06-41,11.48-50.07,33.08
		c-4.14,9.85-6.25,21.21-6.45,31.94c-0.74,39.87-0.3,79.76-0.29,119.64c0,42.91-0.21,85.82,0.08,128.72
		c0.27,39.79,23.71,62.94,63.02,62.95c23.1,0,46.21-0.14,69.31,0.06c16.78,0.14,29.33,11.36,31.08,28.05
		c0.59,5.64,0.1,11.56-0.91,17.17c-5.27,29.47-10.96,58.87-16.2,88.35C290.49,794.81,291.69,798.73,292.05,802.5z M866.18,318.29
		c-66.68,66.74-133.46,133.57-199.3,199.46c10.18,10.33,20.9,21.21,31.11,31.58c66.36-66.39,133.14-133.21,199.49-199.6
		C887.29,339.49,876.66,328.82,866.18,318.29z M885.18,296.26c11.8,11.82,22.58,22.61,33.99,34.03c4.59-4.77,9.76-10.03,14.82-15.41
		c3.77-4.02,4.09-8.34,0.15-12.39c-6.89-7.07-13.89-14.02-20.95-20.92c-3.69-3.6-7.82-3.89-11.73-0.39
		C895.76,286.27,890.26,291.54,885.18,296.26z M647.41,568.21c8.78-2.08,15.85-3.76,23.23-5.51c-6.26-6.39-11.54-11.78-17.5-17.86
		C651.31,552.29,649.6,559.28,647.41,568.21z"/>
	<path d="M415.41,505.45c56.34,0,112.68-0.01,169.01,0.02c3.56,0,7.21-0.12,10.67,0.56c6.43,1.25,10.01,5.49,10.28,12.08
		c0.26,6.57-2.89,11.15-9.22,12.91c-3.11,0.87-6.51,0.96-9.78,0.96c-114.32,0.05-228.65,0.04-342.97,0.03
		c-2.47,0-4.97,0.04-7.4-0.32c-7.47-1.12-12.18-6.42-12.05-13.29c0.13-6.92,4.99-11.94,12.56-12.72c3-0.31,6.04-0.23,9.06-0.23
		C302.18,505.44,358.79,505.45,415.41,505.45z"/>
	<path d="M407.23,578.37c53.87,0,107.73,0,161.6,0.01c2.75,0,5.52-0.12,8.23,0.24c6.64,0.88,10.38,5.2,11.07,11.48
		c0.7,6.37-2.36,11.33-8.57,13.43c-3.03,1.03-6.47,1.19-9.73,1.2c-109.11,0.06-218.22,0.06-327.32-0.01c-3.52,0-7.3-0.15-10.5-1.41
		c-6.01-2.37-8.87-7.39-7.87-13.85c0.93-5.99,4.58-9.94,10.79-10.8c2.97-0.41,6.03-0.28,9.05-0.28
		C298.39,578.37,352.81,578.37,407.23,578.37z"/>
	<path d="M304.92,399.24c11.96,11.37,17.53,24.66,13.16,41.02c-4.11,15.35-16.98,27.12-32.92,28.14
		c-15.88,1.02-31.87,0.81-47.8,0.48c-8.92-0.18-13.38-5.35-13.41-14.43c-0.11-33.55-0.13-67.1,0.01-100.64
		c0.04-9.3,5.01-14.14,14.36-14.32c10.72-0.2,21.45-0.17,32.17-0.03c30.21,0.37,48.25,28.35,36.15,55.97
		C306.1,396.65,305.53,397.88,304.92,399.24z M250.74,442.34c10.59,0,20.95,0.43,31.25-0.15c6.96-0.39,10.91-5.28,10.99-12.12
		c0.08-6.93-4.12-11.8-10.87-12.29c-10.27-0.74-20.64-0.19-31.37-0.19C250.74,426.1,250.74,433.92,250.74,442.34z M250.71,390.78
		c7.55,0,14.63,0.28,21.67-0.08c7.07-0.35,11.73-5.6,11.69-12.35c-0.04-6.62-4.83-11.95-11.84-12.33
		c-7.03-0.38-14.1-0.08-21.52-0.08C250.71,374.29,250.71,381.88,250.71,390.78z"/>
	<path d="M636.23,416.28c-7.63,0-14.48,0.23-21.3-0.06c-8.94-0.38-14.74-6.01-14.49-13.57c0.25-7.35,5.8-12.48,14.45-12.65
		c11.82-0.23,23.66-0.25,35.48,0c9.86,0.21,14.33,5.14,14.42,15.06c0.35,36.94-31.1,66.35-68.02,63.62
		c-37.23-2.75-64.33-36.58-58.62-73.44c3.9-25.21,17.66-43.15,41.65-51.89c23.03-8.38,44.53-4.02,63.12,11.99
		c3.39,2.92,6.4,7.95,6.84,12.28c1.02,10.03-10.07,16.39-18.9,11.39c-2.83-1.6-5.16-4.08-7.82-6.02
		c-12.84-9.42-30.23-9.52-43.21-0.31c-13.61,9.66-19.27,27.52-13.99,44.12c4.77,14.98,18.87,25.36,34.84,25.65
		C616.83,442.75,630.51,433.1,636.23,416.28z"/>
	<path d="M525.2,402.99c0.97,35.93-26.82,65.19-62.62,65.93c-35.47,0.74-64.04-27.46-64.72-63.88
		c-0.65-35.21,27.01-64.73,61.42-65.55C495.64,338.62,524.21,366.14,525.2,402.99z M461.17,442.48
		c20.91,0.22,37.23-16.15,37.58-37.69c0.34-21.46-15.66-38.55-36.42-38.9c-21.25-0.36-37.93,16.37-38.04,38.15
		C424.17,425.48,440.28,442.26,461.17,442.48z"/>
	<path d="M357.69,442.52c11.72,0,22.15-0.02,32.58,0.01c2.75,0.01,5.52-0.06,8.23,0.31c7.57,1.02,12.31,6.15,12.02,13.18
		c-0.3,7.36-4.39,12.4-11.6,12.59c-18.67,0.49-37.37,0.53-56.03-0.06c-7.72-0.24-11.53-6.03-11.55-13.57
		c-0.11-33.82-0.14-67.63,0.02-101.45c0.04-8.48,5.54-13.97,13.05-14.03c7.83-0.07,13.19,5.58,13.24,14.63
		c0.13,26.12,0.05,52.24,0.05,78.35C357.69,435.47,357.69,438.44,357.69,442.52z"/>
</g>
</svg>
