<?xml version="1.0" encoding="utf-8"?>
<!-- Generator: Adobe Illustrator 26.0.1, SVG Export Plug-In . SVG Version: 6.00 Build 0)  -->
<svg version="1.1" id="Layer_1" xmlns="http://www.w3.org/2000/svg" xmlns:xlink="http://www.w3.org/1999/xlink" x="0px" y="0px"
	 viewBox="0 0 1080 1080" style="enable-background:new 0 0 1080 1080;" xml:space="preserve">
<style type="text/css">
	.st0{display:none;}
	.st1{display:inline;}
</style>
<g class="st0">
	<path class="st1" d="M963.32,316.38c-6.28,8.48-11.63,17.87-18.98,25.29c-55.36,55.88-111.06,111.43-166.85,166.9
		c-5.02,4.99-7.43,9.88-7.31,17.15c0.42,24.47,0.52,48.97-0.08,73.43c-0.54,22.15-8.24,41.96-22.89,58.72
		c-15.56,17.8-35.32,26.24-59.04,26.19c-73.99-0.16-147.98,0.28-221.96-0.28c-20.33-0.15-35.84,6.92-49.07,22.07
		c-32.02,36.66-64.52,72.91-97.15,109.03c-4.65,5.15-10.45,10.35-16.77,12.68c-21.4,7.88-43.01-13.19-38.78-37.61
		c5.15-29.77,10.94-59.44,16.44-89.15c0.35-1.89,0.73-3.78,0.97-5.69c1.16-9.48-0.27-11.1-9.93-11.11
		c-22.83-0.03-45.68-0.69-68.48,0.13c-49.96,1.8-77.8-37.28-83.47-72.33c-1.01-6.21-1.56-12.57-1.56-18.86
		c-0.1-82.52-0.06-165.03-0.07-247.55c0-20.32,4.99-39.26,16.64-56c15.42-22.16,36.24-34.57,63.93-34.44
		c41.81,0.2,83.62,0.05,125.42,0.05c119.92,0,239.86,1.14,359.76-0.52c54.21-0.75,84.53,43.75,86.08,84.3
		c0.43,11.15,0.06,22.34,0.06,35.55c3.61-3.37,5.77-5.27,7.8-7.3c33.47-33.44,66.92-66.89,100.37-100.34
		c19.25-19.25,38.06-19.34,57.18-0.28c3.51,3.5,7.45,6.66,10.41,10.57c6.05,7.96,11.58,16.33,17.32,24.53
		C963.32,306.47,963.32,311.42,963.32,316.38z M292.05,802.5c1.01,0.13,2.01,0.25,3.02,0.38c2.04-2.14,4.14-4.23,6.11-6.44
		c32.58-36.54,65.26-72.99,97.68-109.67c17.65-19.98,39.17-29.57,66.12-29.36c73.16,0.56,146.33,0.19,219.49,0.19
		c30.76,0,52.68-16.47,57.23-46.89c3.25-21.73,2.19-44.1,3.06-66.19c-0.8-0.27-1.6-0.53-2.4-0.8
		c-10.58,10.64-20.95,21.5-31.85,31.79c-3.63,3.43-8.33,6.59-13.07,7.84c-20.17,5.33-40.53,9.95-60.85,14.71
		c-15.04,3.52-22.39-3.89-18.87-18.91c4.7-20.05,9.13-40.18,14.36-60.09c1.31-5,4.39-10.13,8.04-13.83
		c32.84-33.28,66.03-66.22,98.96-99.42c2.28-2.3,4.61-5.85,4.67-8.85c0.36-19.52,0.77-39.08-0.1-58.57
		c-1.57-35.2-25-56.96-60.19-56.96c-22.28,0-44.56,0-66.84,0c-138.35,0-276.7,0.17-415.06-0.15c-24.66-0.06-41,11.48-50.07,33.08
		c-4.14,9.85-6.25,21.21-6.45,31.94c-0.74,39.87-0.3,79.76-0.29,119.64c0,42.91-0.21,85.82,0.08,128.72
		c0.27,39.79,23.71,62.94,63.02,62.95c23.1,0,46.21-0.14,69.31,0.06c16.78,0.14,29.33,11.36,31.08,28.05
		c0.59,5.64,0.1,11.56-0.91,17.17c-5.27,29.47-10.96,58.87-16.2,88.35C290.49,794.81,291.69,798.73,292.05,802.5z M866.18,318.29
		c-66.68,66.74-133.46,133.57-199.3,199.46c10.18,10.33,20.9,21.21,31.11,31.58c66.36-66.39,133.14-133.21,199.49-199.6
		C887.29,339.49,876.66,328.82,866.18,318.29z M885.18,296.26c11.8,11.82,22.58,22.61,33.99,34.03c4.59-4.77,9.76-10.03,14.82-15.41
		c3.77-4.02,4.09-8.34,0.15-12.39c-6.89-7.07-13.89-14.02-20.95-20.92c-3.69-3.6-7.82-3.89-11.73-0.39
		C895.76,286.27,890.26,291.54,885.18,296.26z M647.41,568.21c8.78-2.08,15.85-3.76,23.23-5.51c-6.26-6.39-11.54-11.78-17.5-17.86
		C651.31,552.29,649.6,559.28,647.41,568.21z"/>
	<path class="st1" d="M415.41,505.45c56.34,0,112.68-0.01,169.01,0.02c3.56,0,7.21-0.12,10.67,0.56
		c6.43,1.25,10.01,5.49,10.28,12.08c0.26,6.57-2.89,11.15-9.22,12.91c-3.11,0.87-6.51,0.96-9.78,0.96
		c-114.32,0.05-228.65,0.04-342.97,0.03c-2.47,0-4.97,0.04-7.4-0.32c-7.47-1.12-12.18-6.42-12.05-13.29
		c0.13-6.92,4.99-11.94,12.56-12.72c3-0.31,6.04-0.23,9.06-0.23C302.18,505.44,358.79,505.45,415.41,505.45z"/>
	<path class="st1" d="M407.23,578.37c53.87,0,107.73,0,161.6,0.01c2.75,0,5.52-0.12,8.23,0.24c6.64,0.88,10.38,5.2,11.07,11.48
		c0.7,6.37-2.36,11.33-8.57,13.43c-3.03,1.03-6.47,1.19-9.73,1.2c-109.11,0.06-218.22,0.06-327.32-0.01c-3.52,0-7.3-0.15-10.5-1.41
		c-6.01-2.37-8.87-7.39-7.87-13.85c0.93-5.99,4.58-9.94,10.79-10.8c2.97-0.41,6.03-0.28,9.05-0.28
		C298.39,578.37,352.81,578.37,407.23,578.37z"/>
	<path class="st1" d="M304.92,399.24c11.96,11.37,17.53,24.66,13.16,41.02c-4.11,15.35-16.98,27.12-32.92,28.14
		c-15.88,1.02-31.87,0.81-47.8,0.48c-8.92-0.18-13.38-5.35-13.41-14.43c-0.11-33.55-0.13-67.1,0.01-100.64
		c0.04-9.3,5.01-14.14,14.36-14.32c10.72-0.2,21.45-0.17,32.17-0.03c30.21,0.37,48.25,28.35,36.15,55.97
		C306.1,396.65,305.53,397.88,304.92,399.24z M250.74,442.34c10.59,0,20.95,0.43,31.25-0.15c6.96-0.39,10.91-5.28,10.99-12.12
		c0.08-6.93-4.12-11.8-10.87-12.29c-10.27-0.74-20.64-0.19-31.37-0.19C250.74,426.1,250.74,433.92,250.74,442.34z M250.71,390.78
		c7.55,0,14.63,0.28,21.67-0.08c7.07-0.35,11.73-5.6,11.69-12.35c-0.04-6.62-4.83-11.95-11.84-12.33
		c-7.03-0.38-14.1-0.08-21.52-0.08C250.71,374.29,250.71,381.88,250.71,390.78z"/>
	<path class="st1" d="M636.23,416.28c-7.63,0-14.48,0.23-21.3-0.06c-8.94-0.38-14.74-6.01-14.49-13.57
		c0.25-7.35,5.8-12.48,14.45-12.65c11.82-0.23,23.66-0.25,35.48,0c9.86,0.21,14.33,5.14,14.42,15.06
		c0.35,36.94-31.1,66.35-68.02,63.62c-37.23-2.75-64.33-36.58-58.62-73.44c3.9-25.21,17.66-43.15,41.65-51.89
		c23.03-8.38,44.53-4.02,63.12,11.99c3.39,2.92,6.4,7.95,6.84,12.28c1.02,10.03-10.07,16.39-18.9,11.39
		c-2.83-1.6-5.16-4.08-7.82-6.02c-12.84-9.42-30.23-9.52-43.21-0.31c-13.61,9.66-19.27,27.52-13.99,44.12
		c4.77,14.98,18.87,25.36,34.84,25.65C616.83,442.75,630.51,433.1,636.23,416.28z"/>
	<path class="st1" d="M525.2,402.99c0.97,35.93-26.82,65.19-62.62,65.93c-35.47,0.74-64.04-27.46-64.72-63.88
		c-0.65-35.21,27.01-64.73,61.42-65.55C495.64,338.62,524.21,366.14,525.2,402.99z M461.17,442.48
		c20.91,0.22,37.23-16.15,37.58-37.69c0.34-21.46-15.66-38.55-36.42-38.9c-21.25-0.36-37.93,16.37-38.04,38.15
		C424.17,425.48,440.28,442.26,461.17,442.48z"/>
	<path class="st1" d="M357.69,442.52c11.72,0,22.15-0.02,32.58,0.01c2.75,0.01,5.52-0.06,8.23,0.31
		c7.57,1.02,12.31,6.15,12.02,13.18c-0.3,7.36-4.39,12.4-11.6,12.59c-18.67,0.49-37.37,0.53-56.03-0.06
		c-7.72-0.24-11.53-6.03-11.55-13.57c-0.11-33.82-0.14-67.63,0.02-101.45c0.04-8.48,5.54-13.97,13.05-14.03
		c7.83-0.07,13.19,5.58,13.24,14.63c0.13,26.12,0.05,52.24,0.05,78.35C357.69,435.47,357.69,438.44,357.69,442.52z"/>
</g>
<g>
	<path d="M416.65,890.05c-18.06,26.69-51.61,25.8-77.68,18.82c-18.07-4.83-30.08-22.66-30.18-42.07
		c-0.33-64.17-0.42-128.35,0-192.52c0.17-25.52,20.26-44.89,45.67-45.64c7.57-0.22,15.16-0.19,22.74,0
		c14.3,0.36,25.9,6.72,35.53,17.01c43.77-38.43,72.76-85.17,85.72-141.64c7.78-33.87,35.22-46.6,66.09-30.83
		c32.26,16.48,48.5,53.07,38.8,88.57c-5.06,18.51-10.99,36.77-16.48,55.16c-0.99,3.3-1.77,6.65-2.99,11.25c3.87,0,6.72,0,9.57,0
		c26.53,0,53.07-0.1,79.6,0.03c37.62,0.18,61.2,23.89,61.29,61.49c0.05,24.37,0.12,48.74-0.07,73.11
		c-0.27,34.08-9.63,65.63-27.18,94.77c-20.7,34.37-50.98,53.52-91.22,54.35c-39.5,0.82-79.04,0.32-118.56-0.32
		c-25.76-0.42-50.16-7.41-73.45-18.34C421.44,892.11,419,891.09,416.65,890.05z M422.01,768.17c0,28.43-0.09,56.85,0.15,85.27
		c0.02,2.69,1.36,6.71,3.37,7.84c20,11.25,41.35,19.74,64.35,20.45c41.91,1.3,83.88,1.7,125.81,1.05
		c28.27-0.44,49.86-14.32,64.6-38.61c14.02-23.1,22.76-48.01,23.23-75.08c0.45-26.23-0.37-52.5-1.16-78.73
		c-0.63-20.95-11.39-30.88-32.37-30.9c-35.19-0.03-70.38-0.1-105.56,0.06c-7.55,0.03-13.74-2.21-16.07-9.57
		c-1.2-3.79-0.74-8.6,0.4-12.55c7.69-26.75,15.85-53.36,23.68-80.07c7.06-24.08-2.76-47.17-24.18-57.43
		c-13.02-6.23-18.82-3.51-22.11,10.62c-7.38,31.6-19.54,61.17-36.54,88.83c-16.47,26.8-38.06,49.15-60.56,70.72
		c-5.04,4.83-7.31,9.72-7.19,16.87C422.26,714.02,422.01,741.1,422.01,768.17z M338.39,769.8c0,30.85-0.09,61.7,0.04,92.55
		c0.06,14.05,5.92,19.75,19.72,19.89c3.52,0.03,7.03,0.01,10.55,0.01c18.82-0.01,23.57-4.71,23.58-23.44
		c0.01-59.27,0.01-118.53,0-177.8c0-2.43,0.06-4.89-0.2-7.3c-1.08-9.9-7.17-15.58-17.15-15.92c-4.86-0.17-9.74-0.04-14.61-0.03
		c-16.32,0.03-21.89,5.53-21.92,21.92C338.36,709.73,338.39,739.76,338.39,769.8z"/>
	<path d="M474.91,436.36c-20.85-1.09-36.14-19.24-32.81-39.87c2.59-16.02,5.18-32.06,8.45-47.94c1.1-5.33-0.29-8.49-3.95-12.01
		c-11.32-10.88-22.34-22.09-33.48-33.16c-9.67-9.61-13.17-20.98-9.07-34.12c4.07-13.06,13.14-20.92,26.65-23.11
		c16.29-2.64,32.59-5.26,48.97-7.18c5.46-0.64,7.9-3.13,10.03-7.62c6.59-13.93,13.5-27.71,20.3-41.55
		c6.28-12.77,16.27-20.16,30.74-20.16c14.47,0,24.49,7.37,30.73,20.16c6.64,13.61,13.51,27.12,19.66,40.95
		c2.62,5.9,6.3,8.46,12.55,9.22c15.31,1.86,30.54,4.27,45.81,6.49c13.53,1.96,23.06,9.23,27.55,22.14
		c4.52,12.98,1.32,24.6-8.25,34.31c-11.41,11.57-23.22,22.75-34.36,34.56c-2.32,2.45-3.84,7.08-3.44,10.42
		c1.87,15.57,4.57,31.04,6.93,46.55c2.11,13.88-1.01,25.95-12.92,34.46c-12.07,8.62-24.64,8.22-37.43,1.32
		c-13.81-7.44-27.6-14.92-41.68-21.83c-2.79-1.37-7.37-1.38-10.18-0.04c-14.87,7.12-29.34,15.07-44.17,22.29
		C486.32,433.2,480.47,434.49,474.91,436.36z M434.89,275.25c3.9,4.7,6.48,8.36,9.61,11.47c12.3,12.2,24.64,24.38,37.25,36.26
		c6.16,5.81,7.92,12.25,6.33,20.49c-3.48,18.06-6.46,36.21-9.47,54.35c-0.36,2.14,0.36,4.46,0.58,6.7c2.22-0.46,4.68-0.46,6.63-1.46
		c16.84-8.64,33.69-17.27,50.3-26.33c6.89-3.76,13.03-3.82,19.88-0.08c16.14,8.81,32.44,17.31,48.78,25.75
		c2.42,1.25,5.38,1.47,8.09,2.17c0.23-2.83,1.04-5.76,0.58-8.48c-2.82-16.8-5.74-33.59-9.01-50.31c-1.85-9.48-0.44-17.17,7.24-24.1
		c12.86-11.6,24.98-24.02,37.26-36.24c1.97-1.96,3.16-4.7,4.72-7.07c-2.76-1.31-5.4-3.35-8.3-3.81
		c-18.16-2.89-36.35-5.67-54.59-7.95c-7.87-0.98-12.67-4.83-16.13-11.71c-8.25-16.43-16.82-32.71-25.43-48.96
		c-1.3-2.45-3.52-4.42-5.31-6.62c-2,2.29-4.52,4.31-5.92,6.93c-8.76,16.48-17.36,33.04-25.8,49.68c-3.23,6.36-7.84,9.49-15.12,10.39
		C476.98,268.81,456.97,272.03,434.89,275.25z"/>
	<path d="M847.63,519.24c-5.05-1.72-10.34-2.93-15.09-5.26c-11.41-5.59-22.69-11.48-33.75-17.73c-4.09-2.31-7.18-2.06-11.09,0.1
		c-11.13,6.13-22.45,11.92-33.72,17.8c-11.56,6.03-23,6.1-33.61-1.87c-10.56-7.93-13.9-18.72-11.32-31.67
		c2.43-12.2,4.72-24.45,6.37-36.77c0.42-3.13-0.86-7.52-3-9.79c-9.07-9.67-18.75-18.77-28.22-28.06
		c-9.36-9.19-12.85-20.08-8.22-32.56c4.47-12.08,13.86-18.09,26.52-19.65c12.34-1.52,24.71-3.08,36.91-5.42
		c3.33-0.64,7.27-3.51,8.92-6.47c6.05-10.85,11.2-22.2,16.79-33.31c5.74-11.42,15.17-17.71,27.85-17.83
		c13.05-0.12,22.68,6.27,28.58,17.97c5.48,10.86,11.15,21.65,16.09,32.76c2.22,4.99,5.54,6.67,10.43,7.29
		c11.81,1.51,23.56,3.41,35.37,4.9c12.95,1.63,22.56,7.77,26.8,20.37c4.33,12.87,0.5,23.84-9.23,33.11
		c-8.82,8.41-17.14,17.35-26.18,25.51c-4.24,3.83-5,7.71-4.01,12.88c2.44,12.75,4.78,25.53,6.8,38.35
		C880.59,502.55,866.79,518.37,847.63,519.24z M847.94,488.61c-2.76-16.89-5.04-32.1-7.79-47.23c-1.67-9.23-0.24-16.8,7.32-23.31
		c7.99-6.87,15.09-14.75,22.73-22.03c3.58-3.41,7.51-6.45,11.29-9.65c-0.53-0.75-1.07-1.5-1.6-2.25
		c-15.15-2.49-30.24-5.45-45.47-7.31c-9.3-1.14-15.28-5.01-19.23-13.63c-6.61-14.45-14.05-28.53-21.64-43.78
		c-7.91,15.55-15.5,29.86-22.49,44.46c-3.78,7.91-9.4,11.77-18.08,12.79c-15.68,1.84-31.27,4.43-48.62,6.96
		c13.25,13.18,25.18,25.25,37.36,37.07c5.76,5.58,7.89,11.55,6,19.68c-3.53,15.19-6.2,30.58-9.56,47.58
		c15.95-7.98,30.48-14.94,44.71-22.48c7.15-3.79,13.52-3.94,20.67-0.03C817.76,473.21,832.24,480.46,847.94,488.61z"/>
	<path d="M342.72,519.32c-5.28-1.85-10.79-3.22-15.78-5.66c-11.17-5.46-22.18-11.27-33.05-17.31c-3.96-2.2-7.06-2.36-11.1-0.11
		c-11.1,6.19-22.47,11.88-33.71,17.8c-11.54,6.07-22.99,6.27-33.62-1.66c-10.54-7.86-14.12-18.56-11.47-31.58
		c2.43-11.92,4.09-24,6.52-35.92c1.04-5.1-0.16-8.56-3.98-12.11c-9.51-8.85-18.63-18.12-27.85-27.29
		c-9.09-9.03-12.25-19.79-7.83-31.93c4.27-11.76,13.33-17.98,25.63-19.66c12.33-1.69,24.63-3.55,36.98-5.12
		c4.9-0.63,8.21-2.32,10.43-7.31c4.94-11.11,10.61-21.9,16.09-32.76c5.91-11.69,15.53-18.09,28.59-17.96
		c12.69,0.13,22.1,6.42,27.85,17.84c5.47,10.87,11.13,21.66,16.11,32.75c2.2,4.89,5.37,6.81,10.36,7.43
		c12.34,1.53,24.64,3.4,36.96,5.11c12.61,1.74,21.77,8.09,25.94,20.34c4.19,12.31,0.61,22.88-8.47,31.8
		c-8.89,8.72-17.6,17.65-26.85,25.98c-4.59,4.13-5.85,8.19-4.56,14.19c2.66,12.42,4.7,24.98,6.79,37.52
		C375.75,502.19,361.87,518.3,342.72,519.32z M288.53,319.44c-6.26,12.24-12.99,22.63-17.06,33.98c-6.28,17.5-17.94,24.64-36,25.12
		c-11.56,0.31-23.04,3.21-36.17,5.19c13.04,12.94,24.54,24.76,36.52,36.08c6.58,6.22,8.79,12.78,6.63,21.79
		c-3.56,14.84-6.08,29.92-9.34,46.43c15.29-7.7,29.22-14.23,42.66-21.65c8.75-4.83,16.43-4.8,25.12,0.17
		c13.29,7.61,27.1,14.31,41.91,22.04c-2.64-16.58-4.62-31.83-7.62-46.88c-1.94-9.75,0.23-17.01,7.48-24.01
		c11.04-10.65,21.12-22.28,31.74-33.64c-14.48-2.37-29.81-5.35-45.28-7.25c-9.35-1.15-15.19-5.26-19.1-13.82
		C303.54,348.78,296.24,334.94,288.53,319.44z"/>
</g>
</svg>
